<svg width="168" height="29" viewBox="0 0 168 29" fill="none" xmlns="http://www.w3.org/2000/svg">
<path d="M9.36 9.4L13.83 0.579999H18.72L11.61 13.66V22H7.11V13.81L0 0.579999H4.92L9.36 9.4ZM38.6407 22H33.4807L27.8707 12.97L25.9507 14.35V22H21.4207V0.579999H25.9507V10.39C26.2507 9.97 26.5507 9.55 26.8507 9.13C27.1507 8.71 27.4507 8.29 27.7507 7.87L33.5407 0.579999H38.5807L31.1107 10.06L38.6407 22ZM39.0926 28.3C38.5126 28.3 38.0026 28.26 37.5626 28.18C37.1226 28.12 36.7426 28.05 36.4226 27.97V24.19C36.7426 24.27 37.0826 24.34 37.4426 24.4C37.7826 24.46 38.1526 24.49 38.5526 24.49C39.0726 24.49 39.5426 24.39 39.9626 24.19C40.4026 23.99 40.7426 23.61 40.9826 23.05C41.2226 22.49 41.3426 21.69 41.3426 20.65V0.579999H45.8726V20.62C45.8726 22.46 45.5826 23.94 45.0026 25.06C44.4426 26.2 43.6526 27.02 42.6326 27.52C41.6126 28.04 40.4326 28.3 39.0926 28.3ZM64.3842 22L62.8242 16.9H55.0242L53.4642 22H48.5742L56.1342 0.49H61.6842L69.2742 22H64.3842ZM60.1842 8.11C60.0842 7.77 59.9542 7.34 59.7942 6.82C59.6342 6.3 59.4742 5.77 59.3142 5.23C59.1542 4.69 59.0242 4.22 58.9242 3.82C58.8242 4.22 58.6842 4.72 58.5042 5.32C58.3442 5.9 58.1842 6.46 58.0242 7C57.8842 7.52 57.7742 7.89 57.6942 8.11L56.1642 13.09H61.7442L60.1842 8.11ZM81.0471 22L75.8871 5.2H75.7671C75.7871 5.6 75.8171 6.2 75.8571 7C75.8971 7.8 75.9371 8.66 75.9771 9.58C76.0171 10.48 76.0371 11.3 76.0371 12.04V22H71.9871V0.579999H78.1671L83.2371 16.96H83.3271L88.6971 0.579999H94.8771V22H90.6471V11.86C90.6471 11.18 90.6571 10.4 90.6771 9.52C90.7171 8.64 90.7471 7.81 90.7671 7.03C90.8071 6.23 90.8371 5.63 90.8571 5.23H90.7371L85.2171 22H81.0471ZM102.178 22.39C101.458 22.39 100.848 22.2 100.348 21.82C99.8479 21.42 99.5979 20.78 99.5979 19.9C99.5979 18.98 99.8479 18.34 100.348 17.98C100.848 17.6 101.458 17.41 102.178 17.41C102.878 17.41 103.478 17.6 103.978 17.98C104.478 18.34 104.728 18.98 104.728 19.9C104.728 20.78 104.478 21.42 103.978 21.82C103.478 22.2 102.878 22.39 102.178 22.39ZM115.143 22.3C113.523 22.3 112.143 22.01 111.003 21.43C109.863 20.83 108.993 19.91 108.393 18.67C107.793 17.43 107.493 15.84 107.493 13.9C107.493 11.9 107.833 10.27 108.513 9.01C109.193 7.75 110.133 6.82 111.333 6.22C112.553 5.62 113.953 5.32 115.533 5.32C116.653 5.32 117.623 5.43 118.443 5.65C119.283 5.87 120.013 6.13 120.633 6.43L119.313 9.88C118.613 9.6 117.953 9.37 117.333 9.19C116.733 9.01 116.133 8.92 115.533 8.92C114.753 8.92 114.103 9.11 113.583 9.49C113.063 9.85 112.673 10.4 112.413 11.14C112.173 11.86 112.053 12.77 112.053 13.87C112.053 14.95 112.183 15.85 112.443 16.57C112.723 17.27 113.123 17.8 113.643 18.16C114.163 18.5 114.793 18.67 115.533 18.67C116.473 18.67 117.303 18.55 118.023 18.31C118.743 18.05 119.443 17.7 120.123 17.26V21.07C119.443 21.51 118.723 21.82 117.963 22C117.223 22.2 116.283 22.3 115.143 22.3ZM138.773 13.78C138.773 15.14 138.583 16.35 138.203 17.41C137.843 18.47 137.313 19.37 136.613 20.11C135.933 20.83 135.103 21.38 134.123 21.76C133.143 22.12 132.033 22.3 130.793 22.3C129.653 22.3 128.593 22.12 127.613 21.76C126.653 21.38 125.823 20.83 125.123 20.11C124.423 19.37 123.873 18.47 123.473 17.41C123.093 16.35 122.903 15.14 122.903 13.78C122.903 11.96 123.223 10.43 123.863 9.19C124.503 7.93 125.423 6.97 126.623 6.31C127.823 5.65 129.243 5.32 130.883 5.32C132.423 5.32 133.783 5.65 134.963 6.31C136.143 6.97 137.073 7.93 137.753 9.19C138.433 10.43 138.773 11.96 138.773 13.78ZM127.463 13.78C127.463 14.86 127.573 15.77 127.793 16.51C128.033 17.23 128.403 17.78 128.903 18.16C129.403 18.52 130.053 18.7 130.853 18.7C131.653 18.7 132.293 18.52 132.773 18.16C133.273 17.78 133.633 17.23 133.853 16.51C134.093 15.77 134.213 14.86 134.213 13.78C134.213 12.7 134.093 11.8 133.853 11.08C133.633 10.36 133.273 9.82 132.773 9.46C132.273 9.1 131.623 8.92 130.823 8.92C129.643 8.92 128.783 9.33 128.243 10.15C127.723 10.95 127.463 12.16 127.463 13.78ZM161.697 5.32C163.557 5.32 164.957 5.8 165.897 6.76C166.857 7.7 167.337 9.22 167.337 11.32V22H162.867V12.43C162.867 11.25 162.667 10.37 162.267 9.79C161.867 9.19 161.247 8.89 160.407 8.89C159.227 8.89 158.387 9.31 157.887 10.15C157.387 10.99 157.137 12.2 157.137 13.78V22H152.667V12.43C152.667 11.65 152.577 11 152.397 10.48C152.217 9.96 151.947 9.57 151.587 9.31C151.227 9.03 150.767 8.89 150.207 8.89C149.387 8.89 148.737 9.1 148.257 9.52C147.777 9.94 147.437 10.55 147.237 11.35C147.037 12.15 146.937 13.13 146.937 14.29V22H142.467V5.62H145.887L146.487 7.72H146.727C147.067 7.16 147.487 6.71 147.987 6.37C148.487 6.01 149.037 5.75 149.637 5.59C150.257 5.41 150.877 5.32 151.497 5.32C152.697 5.32 153.717 5.52 154.557 5.92C155.397 6.3 156.037 6.9 156.477 7.72H156.867C157.367 6.88 158.057 6.27 158.937 5.89C159.837 5.51 160.757 5.32 161.697 5.32Z" fill="#FEE715"/>
</svg>
