<svg width="95" height="29" viewBox="0 0 95 29" fill="none" xmlns="http://www.w3.org/2000/svg">
<path d="M9.36 9.4L13.83 0.579999H18.72L11.61 13.66V22H7.11V13.81L0 0.579999H4.92L9.36 9.4ZM38.6407 22H33.4807L27.8707 12.97L25.9507 14.35V22H21.4207V0.579999H25.9507V10.39C26.2507 9.97 26.5507 9.55 26.8507 9.13C27.1507 8.71 27.4507 8.29 27.7507 7.87L33.5407 0.579999H38.5807L31.1107 10.06L38.6407 22ZM39.0926 28.3C38.5126 28.3 38.0026 28.26 37.5626 28.18C37.1226 28.12 36.7426 28.05 36.4226 27.97V24.19C36.7426 24.27 37.0826 24.34 37.4426 24.4C37.7826 24.46 38.1526 24.49 38.5526 24.49C39.0726 24.49 39.5426 24.39 39.9626 24.19C40.4026 23.99 40.7426 23.61 40.9826 23.05C41.2226 22.49 41.3426 21.69 41.3426 20.65V0.579999H45.8726V20.62C45.8726 22.46 45.5826 23.94 45.0026 25.06C44.4426 26.2 43.6526 27.02 42.6326 27.52C41.6126 28.04 40.4326 28.3 39.0926 28.3ZM64.3842 22L62.8242 16.9H55.0242L53.4642 22H48.5742L56.1342 0.49H61.6842L69.2742 22H64.3842ZM60.1842 8.11C60.0842 7.77 59.9542 7.34 59.7942 6.82C59.6342 6.3 59.4742 5.77 59.3142 5.23C59.1542 4.69 59.0242 4.22 58.9242 3.82C58.8242 4.22 58.6842 4.72 58.5042 5.32C58.3442 5.9 58.1842 6.46 58.0242 7C57.8842 7.52 57.7742 7.89 57.6942 8.11L56.1642 13.09H61.7442L60.1842 8.11ZM81.0471 22L75.8871 5.2H75.7671C75.7871 5.6 75.8171 6.2 75.8571 7C75.8971 7.8 75.9371 8.66 75.9771 9.58C76.0171 10.48 76.0371 11.3 76.0371 12.04V22H71.9871V0.579999H78.1671L83.2371 16.96H83.3271L88.6971 0.579999H94.8771V22H90.6471V11.86C90.6471 11.18 90.6571 10.4 90.6771 9.52C90.7171 8.64 90.7471 7.81 90.7671 7.03C90.8071 6.23 90.8371 5.63 90.8571 5.23H90.7371L85.2171 22H81.0471Z" fill="#FEE715"/>
</svg>
